<svg width="32" height="33" viewBox="0 0 32 33" fill="none" xmlns="http://www.w3.org/2000/svg">
<path fill-rule="evenodd" clip-rule="evenodd" d="M30.2761 2.22381C30.6746 2.62226 30.7795 3.22816 30.5383 3.7374L18.5383 29.0707C18.2972 29.5797 17.7624 29.8823 17.2019 29.8268C16.6415 29.7713 16.1764 29.3697 16.0398 28.8233L13.5672 18.9328L3.67661 16.4601C3.13026 16.3236 2.72864 15.8584 2.67315 15.298C2.61766 14.7376 2.92026 14.2027 3.42921 13.9616L28.7625 1.96164C29.2718 1.72042 29.8777 1.82537 30.2761 2.22381ZM7.93779 14.7767L14.99 16.5398C15.4678 16.6592 15.8408 17.0322 15.9602 17.5099L17.7232 24.5622L26.5301 5.9698L7.93779 14.7767Z" fill="black"/>
</svg>
