<svg width="32" height="33" viewBox="0 0 32 33" fill="none" xmlns="http://www.w3.org/2000/svg">
<path fill-rule="evenodd" clip-rule="evenodd" d="M24.8579 3.22571C26.1024 2.84278 27.4962 2.75747 28.5963 3.30751C28.8543 3.43653 29.0635 3.64576 29.1925 3.9038C29.7426 5.00387 29.6573 6.39768 29.2743 7.6422C28.8764 8.93556 28.0949 10.2907 26.9428 11.4429L22.7921 15.5936L25.0356 25.8142L23.7333 26.1001L25.0407 25.8386C25.2936 27.1028 24.728 28.1207 23.8666 28.7667C23.773 28.837 23.6705 28.8946 23.5618 28.938L22.8952 29.2047C21.7865 29.6482 20.4326 29.4769 19.6 28.3667C19.584 28.3455 19.5687 28.3237 19.554 28.3015L15.6253 22.3523L13.3333 23.8803V27.1667C13.3333 27.5204 13.1928 27.8595 12.9428 28.1096L11.6094 29.4429C11.327 29.7253 10.9328 29.8663 10.5352 29.8269C10.1377 29.7876 9.77881 29.572 9.55723 29.2397L7.03849 25.4616L3.26037 22.9428C2.928 22.7212 2.71248 22.3623 2.67312 21.9648C2.63376 21.5673 2.7747 21.1731 3.05716 20.8906L4.39049 19.5573C4.64054 19.3072 4.97968 19.1667 5.3333 19.1667H8.61972L10.1477 16.8747L4.19855 12.946C4.17635 12.9314 4.15459 12.916 4.1333 12.9001C3.02315 12.0675 2.85189 10.7135 3.29533 9.60489C3.32174 9.53887 3.35339 9.47506 3.38998 9.41409L3.76773 8.78449C4.33115 7.7137 5.46514 7.22004 6.66145 7.45931L6.68584 7.46442L16.9065 9.70797L21.0572 5.55727C22.2093 4.40511 23.5645 3.62367 24.8579 3.22571ZM22.4275 26.3702L20.031 15.4526C19.9335 15.0086 20.069 14.5454 20.3905 14.2239L25.0572 9.55727C25.905 8.70944 26.4569 7.73128 26.7256 6.85797C26.8895 6.32523 26.9303 5.89794 26.913 5.58709C26.6021 5.56979 26.1748 5.61053 25.6421 5.77445C24.7688 6.04316 23.7906 6.59506 22.9428 7.44289L18.2761 12.1096C17.9546 12.431 17.4915 12.5666 17.0474 12.4691L6.1299 10.0725C6.12092 10.0709 6.11281 10.0697 6.10555 10.0687C6.09628 10.0858 6.08663 10.1027 6.07662 10.1194L5.74627 10.67C5.73404 10.7166 5.73283 10.7477 5.73353 10.764L12.7347 15.3875C13.0306 15.5829 13.2365 15.8881 13.3068 16.2357C13.3771 16.5833 13.3061 16.9446 13.1094 17.2397L10.4427 21.2397C10.1954 21.6106 9.7791 21.8334 9.3333 21.8334H6.40367L8.73957 23.3907C8.88604 23.4883 9.01172 23.614 9.10937 23.7605L10.6666 26.0964V23.1667C10.6666 22.7209 10.8894 22.3046 11.2604 22.0573L15.2604 19.3907C15.5554 19.194 15.9167 19.1229 16.2643 19.1932C16.6119 19.2635 16.9172 19.4694 17.1126 19.7653L21.736 26.7665C21.7598 26.7675 21.8155 26.7645 21.9048 26.7288L22.3716 26.542C22.4124 26.4993 22.4255 26.4723 22.4284 26.4657C22.4309 26.4599 22.4324 26.455 22.4333 26.4461C22.4342 26.4369 22.4354 26.413 22.4275 26.3702Z" fill="black"/>
</svg>
