<svg width="32" height="33" viewBox="0 0 32 33" fill="none" xmlns="http://www.w3.org/2000/svg">
<path fill-rule="evenodd" clip-rule="evenodd" d="M6.66666 5.83341C6.31303 5.83341 5.9739 5.97389 5.72385 6.22394C5.4738 6.47399 5.33332 6.81313 5.33332 7.16675V25.8334C5.33332 26.187 5.4738 26.5262 5.72385 26.7762C5.9739 27.0263 6.31304 27.1667 6.66666 27.1667H25.3333C25.6869 27.1667 26.0261 27.0263 26.2761 26.7762C26.5262 26.5262 26.6667 26.187 26.6667 25.8334V15.1667C26.6667 14.4304 27.2636 13.8334 28 13.8334C28.7364 13.8334 29.3333 14.4304 29.3333 15.1667V25.8334C29.3333 26.8943 28.9119 27.9117 28.1618 28.6618C27.4116 29.412 26.3942 29.8334 25.3333 29.8334H6.66666C5.60579 29.8334 4.58837 29.412 3.83823 28.6618C3.08808 27.9117 2.66666 26.8943 2.66666 25.8334V7.16675C2.66666 6.10588 3.08808 5.08847 3.83823 4.33832C4.58837 3.58818 5.60579 3.16675 6.66666 3.16675H17.3333C18.0697 3.16675 18.6667 3.7637 18.6667 4.50008C18.6667 5.23646 18.0697 5.83341 17.3333 5.83341H6.66666Z" fill="black"/>
<path fill-rule="evenodd" clip-rule="evenodd" d="M8.97631 9.47631C9.60143 8.85119 10.4493 8.5 11.3333 8.5C12.2174 8.5 13.0652 8.85119 13.6904 9.47631C14.3155 10.1014 14.6667 10.9493 14.6667 11.8333C14.6667 12.7174 14.3155 13.5652 13.6904 14.1904C13.0652 14.8155 12.2174 15.1667 11.3333 15.1667C10.4493 15.1667 9.60143 14.8155 8.97631 14.1904C8.35119 13.5652 8 12.7174 8 11.8333C8 10.9493 8.35119 10.1014 8.97631 9.47631ZM11.3333 11.1667C11.1565 11.1667 10.987 11.2369 10.8619 11.3619C10.7369 11.487 10.6667 11.6565 10.6667 11.8333C10.6667 12.0101 10.7369 12.1797 10.8619 12.3047C10.987 12.4298 11.1565 12.5 11.3333 12.5C11.5101 12.5 11.6797 12.4298 11.8047 12.3047C11.9298 12.1797 12 12.0101 12 11.8333C12 11.6565 11.9298 11.487 11.8047 11.3619C11.6797 11.2369 11.5101 11.1667 11.3333 11.1667Z" fill="black"/>
<path fill-rule="evenodd" clip-rule="evenodd" d="M20.3905 12.8905C20.9112 12.3698 21.7555 12.3698 22.2762 12.8905L28.9428 19.5572C29.4635 20.0779 29.4635 20.9221 28.9428 21.4428C28.4221 21.9635 27.5779 21.9635 27.0572 21.4428L21.3333 15.719L7.60949 29.4428C7.08879 29.9635 6.24457 29.9635 5.72387 29.4428C5.20317 28.9221 5.20317 28.0779 5.72387 27.5572L20.3905 12.8905Z" fill="black"/>
<path fill-rule="evenodd" clip-rule="evenodd" d="M25.3333 1.83325C26.0697 1.83325 26.6667 2.43021 26.6667 3.16659V11.1666C26.6667 11.903 26.0697 12.4999 25.3333 12.4999C24.597 12.4999 24 11.903 24 11.1666V3.16659C24 2.43021 24.597 1.83325 25.3333 1.83325Z" fill="black"/>
<path fill-rule="evenodd" clip-rule="evenodd" d="M20 7.16659C20 6.43021 20.597 5.83325 21.3333 5.83325H29.3333C30.0697 5.83325 30.6667 6.43021 30.6667 7.16659C30.6667 7.90296 30.0697 8.49992 29.3333 8.49992H21.3333C20.597 8.49992 20 7.90296 20 7.16659Z" fill="black"/>
</svg>
