<svg width="32" height="33" viewBox="0 0 32 33" fill="none" xmlns="http://www.w3.org/2000/svg">
<path fill-rule="evenodd" clip-rule="evenodd" d="M6.60093 3.80816C7.63817 3.37747 8.75023 3.15576 9.87333 3.15576C10.9964 3.15576 12.1085 3.37747 13.1457 3.80816C14.183 4.23886 15.125 4.87007 15.9178 5.6656L15.9222 5.67006L16 5.74887L16.0778 5.67007L16.0822 5.6656C16.875 4.87007 17.817 4.23886 18.8543 3.80816C19.8915 3.37747 21.0036 3.15576 22.1267 3.15576C23.2498 3.15576 24.3618 3.37747 25.3991 3.80816C26.436 4.23871 27.3777 4.86963 28.1703 5.66478C31.5637 9.05904 31.6391 14.6712 27.6182 18.7675L27.6095 18.7763L16.9428 29.4429C16.6928 29.693 16.3536 29.8334 16 29.8334C15.6464 29.8334 15.3072 29.693 15.0572 29.4429L4.38178 18.7675C0.360848 14.6713 0.436342 9.05903 3.82971 5.66477C4.62232 4.86963 5.56404 4.23871 6.60093 3.80816ZM9.87333 5.82243C9.1012 5.82243 8.33666 5.97485 7.62355 6.27095C6.91045 6.56706 6.26281 7.00101 5.71778 7.54794L5.71614 7.54958C3.45799 9.80773 3.18634 13.7391 6.28069 16.8952L16 26.6145L25.7193 16.8952C28.8137 13.7391 28.542 9.80774 26.2839 7.54958L26.2822 7.54794C25.7372 7.00101 25.0896 6.56706 24.3764 6.27095C23.6633 5.97485 22.8988 5.82243 22.1267 5.82243C21.3545 5.82243 20.59 5.97485 19.8769 6.27095C19.1647 6.56667 18.5179 6.99987 17.9733 7.54579C17.9725 7.5465 17.9718 7.54722 17.9711 7.54794L16.9489 8.58348C16.6983 8.83726 16.3566 8.98011 16 8.98011C15.6434 8.98011 15.3017 8.83726 15.0511 8.58348L14.0289 7.54794C14.0282 7.54722 14.0275 7.5465 14.0267 7.54579C13.4822 6.99987 12.8353 6.56667 12.1231 6.27095C11.41 5.97485 10.6455 5.82243 9.87333 5.82243Z" fill="black"/>
</svg>
