<svg width="16" height="17" viewBox="0 0 16 17" fill="none" xmlns="http://www.w3.org/2000/svg">
<g clip-path="url(#clip0_1_105)">
<path fill-rule="evenodd" clip-rule="evenodd" d="M7.99998 1.83333C6.58549 1.83333 5.22894 2.39524 4.22874 3.39543C3.22855 4.39562 2.66665 5.75218 2.66665 7.16667C2.66665 9.23204 4.01047 11.2362 5.48395 12.7915C6.20705 13.5548 6.93243 14.1796 7.47776 14.6139C7.68072 14.7755 7.858 14.9101 7.99998 15.0151C8.14196 14.9101 8.31924 14.7755 8.5222 14.6139C9.06753 14.1796 9.79291 13.5548 10.516 12.7915C11.9895 11.2362 13.3333 9.23204 13.3333 7.16667C13.3333 5.75218 12.7714 4.39562 11.7712 3.39543C10.771 2.39524 9.41447 1.83333 7.99998 1.83333ZM7.99998 15.8333C7.63018 16.388 7.63001 16.3879 7.62982 16.3878L7.62791 16.3865L7.62347 16.3835L7.60819 16.3732C7.59521 16.3644 7.5767 16.3517 7.55302 16.3353C7.50567 16.3025 7.43762 16.2547 7.35184 16.1928C7.18034 16.0689 6.93755 15.8881 6.6472 15.6569C6.06753 15.1954 5.29291 14.5286 4.51601 13.7085C2.98949 12.0972 1.33331 9.76796 1.33331 7.16667C1.33331 5.39856 2.03569 3.70286 3.28593 2.45262C4.53618 1.20238 6.23187 0.5 7.99998 0.5C9.76809 0.5 11.4638 1.20238 12.714 2.45262C13.9643 3.70286 14.6666 5.39856 14.6666 7.16667C14.6666 9.76796 13.0105 12.0972 11.4839 13.7085C10.7071 14.5286 9.93242 15.1954 9.35276 15.6569C9.06241 15.8881 8.81962 16.0689 8.64812 16.1928C8.56234 16.2547 8.49429 16.3025 8.44694 16.3353C8.42326 16.3517 8.40475 16.3644 8.39177 16.3732L8.37649 16.3835L8.37205 16.3865L8.37064 16.3875C8.37045 16.3876 8.36978 16.388 7.99998 15.8333ZM7.99998 15.8333L8.36978 16.388C8.14585 16.5373 7.85375 16.5371 7.62982 16.3878L7.99998 15.8333Z" fill="white"/>
<path fill-rule="evenodd" clip-rule="evenodd" d="M7.99998 5.83333C7.2636 5.83333 6.66665 6.43029 6.66665 7.16667C6.66665 7.90305 7.2636 8.5 7.99998 8.5C8.73636 8.5 9.33331 7.90305 9.33331 7.16667C9.33331 6.43029 8.73636 5.83333 7.99998 5.83333ZM5.33331 7.16667C5.33331 5.69391 6.52722 4.5 7.99998 4.5C9.47274 4.5 10.6666 5.69391 10.6666 7.16667C10.6666 8.63943 9.47274 9.83333 7.99998 9.83333C6.52722 9.83333 5.33331 8.63943 5.33331 7.16667Z" fill="white"/>
</g>
<defs>
<clipPath id="clip0_1_105">
<rect width="16" height="16" fill="white" transform="translate(0 0.5)"/>
</clipPath>
</defs>
</svg>
