<svg width="45" height="60" viewBox="0 0 45 60" fill="none" xmlns="http://www.w3.org/2000/svg">
<path d="M0.615441 37L5.9903 12.7516H9.31368L14.6065 37H11.8165L10.5035 31.379H4.55427L3.32338 37H0.615441ZM4.63632 29.9429H10.4625L7.59044 15.9109L4.63632 29.9429ZM17.8106 37V12.7516H25.319C26.714 12.7516 27.8355 13.0798 28.6834 13.7363C29.5313 14.3654 29.9553 15.3775 29.9553 16.7725V21.2447C29.9553 22.1747 29.8186 23.05 29.545 23.8706C29.2715 24.6638 28.7655 25.3066 28.0269 25.799C27.2884 26.2913 26.2216 26.5375 24.8266 26.5375H20.4775V37H17.8106ZM20.4775 25.0194H24.0471C25.1412 25.0194 25.9618 24.6912 26.5088 24.0347C27.0833 23.3509 27.3705 22.3115 27.3705 20.9165V17.7572C27.3705 16.5537 27.1106 15.6784 26.5909 15.1313C26.0712 14.5569 25.4421 14.2697 24.7036 14.2697H20.4775V25.0194ZM35.6058 37V14.5979H31.5439V12.7516H42.3347V14.5979H38.1907V37H35.6058Z" fill="url(#paint0_linear_1_81)"/>
<path d="M4.03015 53.9735C3.44779 53.9735 2.93162 53.9073 2.48162 53.7749C2.04485 53.6426 1.69412 53.3713 1.42941 52.961C1.17794 52.5374 1.05221 51.9021 1.05221 51.0551V44.4441C1.05221 43.7029 1.17794 43.147 1.42941 42.7764C1.69412 42.4058 2.05147 42.161 2.50147 42.0418C2.96471 41.9095 3.48088 41.8433 4.05 41.8433C4.63235 41.8433 5.14191 41.9095 5.57868 42.0418C6.01544 42.1742 6.35956 42.4257 6.61103 42.7963C6.8625 43.1668 6.98824 43.7161 6.98824 44.4441V46.5088H5.7375V44.4242C5.7375 43.908 5.66471 43.5242 5.51912 43.2727C5.37353 43.008 5.16838 42.836 4.90368 42.7566C4.65221 42.6771 4.36103 42.6374 4.03015 42.6374C3.69926 42.6374 3.40147 42.6771 3.13676 42.7566C2.88529 42.836 2.68676 43.008 2.54118 43.2727C2.40882 43.5242 2.34265 43.908 2.34265 44.4242V51.3926C2.34265 51.922 2.40882 52.3191 2.54118 52.5838C2.68676 52.8352 2.88529 53.0007 3.13676 53.0801C3.40147 53.1595 3.69926 53.1992 4.03015 53.1992C4.37427 53.1992 4.67206 53.1595 4.92353 53.0801C5.175 53.0007 5.37353 52.8352 5.51912 52.5838C5.66471 52.3191 5.7375 51.922 5.7375 51.3926V49.6257H6.98824V51.0352C6.98824 51.8955 6.8625 52.5374 6.61103 52.961C6.35956 53.3713 6.01544 53.6426 5.57868 53.7749C5.14191 53.9073 4.62574 53.9735 4.03015 53.9735ZM9.18028 53.7352V42.0021H14.9178V53.7352H13.6075V42.9154H10.4906V53.7352H9.18028ZM17.42 53.7352V42.0021H22.4825V42.8955H18.7105V47.1043H21.7281V48.097H18.7105V52.8418H22.4825V53.7352H17.42ZM24.2057 53.7352V42.0021H25.4564V47.3227H26.191L28.9506 42.0021H30.3204L27.3623 47.6602L30.4197 53.7352H29.0101L26.2704 48.2161H25.4564V53.7352H24.2057ZM32.603 53.7352V42.8955H30.6376V42.0021H35.8589V42.8955H33.8538V53.7352H32.603ZM37.3311 53.7352V42.0021H40.9642C41.6392 42.0021 42.1819 42.161 42.5922 42.4786C43.0025 42.783 43.2076 43.2727 43.2076 43.9477V46.1117C43.2076 46.5617 43.1414 46.9852 43.0091 47.3823C42.8767 47.7661 42.6319 48.0771 42.2745 48.3154C41.9172 48.5536 41.401 48.6727 40.726 48.6727H38.6216V53.7352H37.3311ZM38.6216 47.9382H40.3488C40.8782 47.9382 41.2752 47.7793 41.54 47.4617C41.8179 47.1308 41.9569 46.6279 41.9569 45.9529V44.4242C41.9569 43.8418 41.8311 43.4183 41.5797 43.1536C41.3282 42.8757 41.0238 42.7367 40.6664 42.7367H38.6216V47.9382Z" fill="black"/>
<defs>
<linearGradient id="paint0_linear_1_81" x1="1.95455" y1="23.1757" x2="43.6567" y2="25.7402" gradientUnits="userSpaceOnUse">
<stop stop-color="#DF1D91"/>
<stop offset="0.348958" stop-color="#830DF9"/>
<stop offset="0.666667" stop-color="#1F5AF4"/>
<stop offset="0.946458" stop-color="#19DDEA"/>
</linearGradient>
</defs>
</svg>
